<svg xmlns="http://www.w3.org/2000/svg" width="100%" height="100%" fill="currentColor" stroke="none" viewBox="0 0 200 200"><g transform="translate(0,200) scale(0.1,-0.1)">
<path d="M513 1747 l-483 -242 0 -505 0 -505 485 -243 485 -242 485 242 485
243 0 505 0 505 -485 243 c-267 133 -486 242 -488 241 -1 0 -219 -109 -484
-242z m457 -297 l0 -430 -120 -60 c-66 -33 -122 -60 -125 -60 -3 0 -5 142 -5
315 0 173 -2 315 -4 315 -2 0 -78 -36 -168 -80 l-163 -80 -5 -326 -5 -325
-123 -65 -122 -65 2 431 3 431 415 214 c228 117 416 214 418 214 1 1 2 -192 2
-429z m573 166 l327 -167 0 -430 0 -430 -132 69 c-73 38 -262 136 -420 216
l-288 147 0 430 0 430 93 -49 c50 -27 239 -124 420 -216z m-863 -441 l0 -295
-120 -60 c-66 -33 -122 -60 -125 -60 -3 0 -5 132 -5 294 l0 294 123 60 c67 33
123 61 125 61 1 1 2 -132 2 -294z m753 -411 l432 -217 -433 -216 -432 -216
-432 216 -433 216 430 216 c237 119 431 216 433 216 1 1 197 -96 435 -215z"/>
<path d="M1280 1357 l0 -162 165 -83 c91 -45 167 -82 170 -82 3 0 5 73 5 163
l0 162 -97 49 c-54 27 -131 64 -170 82 l-73 33 0 -162z m180 33 l120 -60 0
-115 c0 -71 -4 -115 -10 -115 -6 0 -64 27 -130 60 l-120 60 0 115 c0 71 4 115
10 115 6 0 64 -27 130 -60z"/>
<path d="M903 892 c-51 -26 -93 -49 -93 -52 0 -3 42 -26 93 -52 l92 -46 -97
-48 -98 -48 -98 48 -98 48 -99 -50 -100 -50 98 -48 97 -49 -97 -49 -98 -49
100 -49 99 -50 98 48 98 48 98 -48 97 -48 -100 -50 -100 -51 100 -50 101 -49
99 50 100 49 -100 50 -100 50 98 49 97 49 -97 49 -98 48 100 50 100 51 -100
50 -100 50 100 49 100 50 -95 49 c-52 26 -97 48 -100 48 -3 0 -47 -21 -97 -47z
m-3 -301 l95 -49 -97 -48 -98 -48 -91 44 c-50 25 -93 48 -95 52 -5 8 163 97
181 97 6 0 53 -22 105 -48z"/>
<path d="M1290 691 l-95 -49 98 -49 98 -49 -92 -44 c-50 -25 -93 -48 -95 -52
-3 -4 38 -29 90 -55 l96 -47 100 49 101 50 -96 48 c-53 26 -94 51 -91 55 2 4
45 27 95 52 l92 44 -93 48 c-51 26 -97 47 -103 47 -5 0 -53 -22 -105 -48z"/>
</g>
</svg>
