<?xml version="1.0" encoding="windows-1252"?>
<!-- Generator: Adobe Illustrator 19.0.0, SVG Export Plug-In . SVG Version: 6.00 Build 0)  -->
<svg version="1.1" id="Capa_1" xmlns="http://www.w3.org/2000/svg" xmlns:xlink="http://www.w3.org/1999/xlink" x="0px" y="0px" viewBox="0 0 512 512" style="enable-background:new 0 0 512 512;" xml:space="preserve">
<g>
	<g>
		<g>
			<path d="M247.47,230.4c0-9.412-7.654-17.067-17.067-17.067c-9.412,0-17.067,7.654-17.067,17.067v17.067h34.133V230.4z"/>
			<path d="M256,0C114.842,0,0,114.842,0,256s114.842,256,256,256s256-114.842,256-256S397.158,0,256,0z M349.867,204.8     c0-4.71,3.823-8.533,8.533-8.533h34.133c4.719,0,8.533,3.823,8.533,8.533c0,4.71-3.814,8.533-8.533,8.533h-25.6v25.6h25.6     c4.719,0,8.533,3.823,8.533,8.533S397.252,256,392.533,256h-25.6v25.6h25.6c4.719,0,8.533,3.823,8.533,8.533     c0,4.71-3.814,8.533-8.533,8.533H358.4c-4.71,0-8.533-3.823-8.533-8.533V204.8z M205.875,57.557     c16.461-4.207,33.323-6.34,50.116-6.357H256c4.71,0,8.533,3.814,8.533,8.525c0.009,4.719-3.806,8.542-8.525,8.542     c-15.377,0.017-30.822,1.971-45.909,5.82c-0.708,0.188-1.417,0.265-2.116,0.265c-3.806,0-7.279-2.56-8.26-6.417     C198.554,63.369,201.31,58.718,205.875,57.557z M75.153,205.466c-4.565,16.384-6.878,33.382-6.886,50.543     c0,4.71-3.814,8.525-8.533,8.525c-4.71,0-8.533-3.823-8.533-8.533c0.009-18.697,2.534-37.239,7.509-55.108     c1.263-4.54,5.965-7.185,10.505-5.931C73.762,196.224,76.416,200.926,75.153,205.466z M130.398,223.445     c0.196,1.894,1.271,3.695,2.961,4.924l33.476,24.405c5.589,4.079,9.19,10.257,9.89,16.956c0.674,6.494-1.374,12.749-5.76,17.613     c-6.502,7.194-15.94,11.324-25.899,11.324c-18.5,0-34.133-15.625-34.133-34.133c0-4.71,3.823-8.533,8.533-8.533     c4.719,0,8.533,3.823,8.533,8.533c0,8.934,8.141,17.067,17.067,17.067c5.137,0,9.958-2.074,13.218-5.692     c1.425-1.57,1.579-3.268,1.459-4.42c-0.196-1.894-1.271-3.695-2.961-4.924l-33.476-24.405c-5.589-4.079-9.19-10.257-9.89-16.956     c-0.674-6.494,1.374-12.74,5.76-17.613c6.494-7.194,15.932-11.324,25.89-11.324c18.509,0,34.133,15.633,34.133,34.133     c0,4.71-3.814,8.533-8.533,8.533c-4.71,0-8.533-3.823-8.533-8.533c0-8.934-8.132-17.067-17.067-17.067     c-5.137,0-9.95,2.074-13.21,5.692C130.432,220.604,130.278,222.293,130.398,223.445z M174.857,86.98     c-36.915,17.809-67.388,47.309-85.803,83.081c-1.519,2.944-4.506,4.625-7.603,4.625c-1.306,0-2.645-0.299-3.9-0.947     c-4.181-2.159-5.837-7.305-3.678-11.494c20.105-39.04,53.333-71.228,93.568-90.633c4.232-2.048,9.344-0.273,11.392,3.977     C180.881,79.838,179.098,84.932,174.857,86.98z M213.333,290.133c0,4.71-3.814,8.533-8.533,8.533     c-4.71,0-8.533-3.823-8.533-8.533V230.4c0-18.816,15.317-34.133,34.133-34.133c18.825,0,34.133,15.317,34.133,34.133v59.733     c0,4.71-3.814,8.533-8.533,8.533c-4.71,0-8.533-3.823-8.533-8.533v-25.6h-34.133V290.133z M309.376,453.581     c-17.459,4.779-35.413,7.211-53.367,7.219H256c-4.702,0-8.525-3.814-8.533-8.525c0-4.719,3.814-8.533,8.533-8.542     c16.427-0.008,32.87-2.236,48.87-6.613c4.523-1.254,9.242,1.434,10.487,5.982C316.604,447.65,313.924,452.335,309.376,453.581z      M324.267,298.667h-34.133c-4.71,0-8.533-3.823-8.533-8.533V204.8c0-4.71,3.823-8.533,8.533-8.533     c4.719,0,8.533,3.823,8.533,8.533v76.8h25.6c4.719,0,8.533,3.823,8.533,8.533C332.8,294.844,328.986,298.667,324.267,298.667z      M441.762,342.349c-18.748,40.26-51.098,73.975-91.102,94.95c-1.271,0.666-2.62,0.973-3.959,0.973     c-3.072,0-6.042-1.655-7.561-4.565c-2.193-4.173-0.58-9.336,3.593-11.52c36.71-19.251,66.381-50.159,83.558-87.049     c1.98-4.267,7.049-6.135,11.341-4.13C441.907,332.996,443.75,338.074,441.762,342.349z M447.096,309.538     c-0.649,0-1.297-0.068-1.954-0.222c-4.599-1.084-7.441-5.675-6.366-10.266c3.285-13.978,4.949-28.467,4.958-43.051     c0-4.719,3.831-8.533,8.533-8.533h0.009c4.71,0.009,8.525,3.823,8.525,8.542c-0.009,15.889-1.818,31.684-5.402,46.95     C454.468,306.884,450.961,309.538,447.096,309.538z"/>
		</g>
	</g>
</g>
<g>
</g>
<g>
</g>
<g>
</g>
<g>
</g>
<g>
</g>
<g>
</g>
<g>
</g>
<g>
</g>
<g>
</g>
<g>
</g>
<g>
</g>
<g>
</g>
<g>
</g>
<g>
</g>
<g>
</g>
</svg>